# xmcd
#
# Track frame offsets:
#	150
#	13705
#	24774
#	40923
#	59760
#	76524
#	90193
#	103405
#	115291
#	134283
#	151294
#	164318
#	176151
#	188936
#	227104
#	247266
#	262943
#	277311
#	293460
#	301763
#	314145
#	326166
#
# Disc length: 4520 seconds
#
# Revision: 1
# Processed by: cddbd v1.5.1PL2 Copyright (c) Steve Scherf et al.
# Submitted via: audiograbber 1.83.01
#
DISCID=3311a616
DTITLE=Johnny Cash - Best Of Johnny Cd 3
DYEAR=1900
DGENRE=Country
TTITLE0=Singin ' In Vietnam Talkin ' Blues
TTITLE1=Solitär Man
TTITLE2=Streets Of Laredo
TTITLE3=Sunday Morning Coming Down
TTITLE4=Tear Stained Letter
TTITLE5=Teenessee Flat Tap Box
TTITLE6=Teenessee Stud
TTITLE7=The Ballad Of Boot Hill
TTITLE8=The Ballad Of Ira Hayes
TTITLE9=The City Of New Orleans
TTITLE10=The General Lee
TTITLE11=The Highwayman
TTITLE12=The Last Gunfighter Ballad
TTITLE13=The Legend Of John Henry's Hammer
TTITLE14=The Man Comes Around
TTITLE15=The Night Hank Williams Came To Town
TTITLE16=Johnny Cash and Carter Family - The Reverend Mister Black
TTITLE17=The Streets Of Laredo
TTITLE18=The Wall
TTITLE19=Unterstand Your Man
TTITLE20=Wabash Cannonball
TTITLE21=Wanted Man
EXTD=
EXTT0=
EXTT1=
EXTT2=
EXTT3=
EXTT4=
EXTT5=
EXTT6=
EXTT7=
EXTT8=
EXTT9=
EXTT10=
EXTT11=
EXTT12=
EXTT13=
EXTT14=
EXTT15=
EXTT16=
EXTT17=
EXTT18=
EXTT19=
EXTT20=
EXTT21=
PLAYORDER=
